USFL
nRows=250
nColumns=2
inDegrees=yes
endheader
time	tib_ant_r	
3.65904	 68.227218	
3.6923	 68.253840	
3.72557	 68.230571	
3.75883	 68.190655	
3.7921	 68.175380	
3.82536	 68.193689	
3.85862	 68.224332	
3.89189	 68.194676	
3.92515	 68.204626	
3.95842	 68.243331	
3.99168	 68.252578	
4.02494	 68.286880	
4.05821	 68.301371	
4.09147	 68.297841	
4.12474	 68.301815	
4.158	 68.275755	
4.19126	 68.300243	
4.22453	 68.373013	
4.25779	 68.370307	
4.29106	 68.350048	
4.32432	 68.300029	
4.35758	 68.256649	
4.39085	 68.289447	
4.42411	 68.340063	
4.45738	 68.313495	
4.49064	 68.261638	
4.5239	 68.047351	
4.55717	 68.146616	
4.59043	 68.109642	
4.6237	 68.031318	
4.65696	 68.095502	
4.69022	 68.220769	
4.72349	 68.272131	
4.75675	 68.328182	
4.79002	 68.211265	
4.82328	 68.266161	
4.85654	 68.265839	
4.88981	 68.038900	
4.92307	 67.974258	
4.95634	 67.969831	
4.9896	 67.943945	
5.02286	 67.818978	
5.05613	 67.748762	
5.08939	 67.667623	
5.12266	 67.486098	
5.15592	 67.237346	
5.18918	 67.125362	
5.22245	 67.128358	
5.25571	 67.108373	
5.28898	 67.053562	
5.32224	 66.869321	
5.3555	 66.823070	
5.38877	 66.696510	
5.42203	 66.598338	
5.4553	 66.545077	
5.48856	 66.458714	
5.52182	 66.380882	
5.55509	 66.370930	
5.58835	 66.384294	
5.62162	 66.337351	
5.65488	 66.334557	
5.68814	 66.331543	
5.72141	 66.276607	
5.75467	 66.266842	
5.78794	 66.207547	
5.8212	 66.170219	
5.85446	 66.149604	
5.88773	 66.098795	
5.92099	 66.053102	
5.95426	 66.047885	
5.98752	 66.058501	
6.02078	 66.040237	
6.05405	 65.945646	
6.08731	 66.048747	
6.12058	 66.007212	
6.15384	 66.002168	
6.1871	 66.032866	
6.22037	 66.018196	
6.25363	 66.002659	
6.2869	 66.079662	
6.32016	 66.107932	
6.35342	 66.159494	
6.38669	 66.167827	
6.41995	 66.220488	
6.45322	 66.208636	
6.48648	 66.136308	
6.51974	 66.118244	
6.55301	 66.101014	
6.58627	 66.101737	
6.61954	 66.073300	
6.6528	 66.259532	
6.68606	 66.354312	
6.71933	 66.529900	
6.75259	 66.594028	
6.78586	 66.799847	
6.81912	 67.067010	
6.85238	 67.076204	
6.88565	 67.115978	
6.91891	 67.296517	
6.95218	 67.332672	
6.98544	 67.433579	
7.0187	 67.479415	
7.05197	 67.485764	
7.08523	 67.515705	
7.1185	 67.481677	
7.15176	 67.478574	
7.18502	 67.462410	
7.21829	 67.491644	
7.25155	 67.499868	
7.28482	 67.507502	
7.31808	 67.519613	
7.35134	 67.527372	
7.38461	 67.563715	
7.41787	 67.593373	
7.45114	 67.567696	
7.4844	 67.620584	
7.51766	 67.650721	
7.55093	 67.636319	
7.58419	 67.655887	
7.61746	 67.648734	
7.65072	 67.649155	
7.68398	 67.647068	
7.71725	 67.667506	
7.75051	 67.797810	
7.78378	 67.802077	
7.81704	 67.863612	
7.8503	 67.824574	
7.88357	 67.816355	
7.91683	 67.887741	
7.9501	 67.845744	
7.98336	 67.879383	
8.01662	 67.888692	
8.04989	 67.921361	
8.08315	 67.929573	
8.11642	 67.965932	
8.14968	 67.970565	
8.18294	 67.961954	
8.21621	 67.980757	
8.24947	 68.030142	
8.28274	 68.060623	
8.316	 68.034381	
8.34926	 67.981690	
8.38253	 68.007251	
8.41579	 67.973715	
8.44906	 67.987027	
8.48232	 67.988900	
8.51558	 68.038097	
8.54885	 68.044382	
8.58211	 68.061814	
8.61538	 68.127942	
8.64864	 68.131807	
8.6819	 68.142666	
8.71517	 68.145205	
8.74843	 68.146704	
8.7817	 68.158550	
8.81496	 68.162091	
8.84822	 68.139544	
8.88149	 68.162629	
8.91475	 68.147722	
8.94802	 68.144141	
8.98128	 68.186168	
9.01454	 68.227274	
9.04781	 68.150779	
9.08107	 68.109398	
9.11434	 68.150119	
9.1476	 68.160594	
9.18086	 68.170216	
9.21413	 68.233137	
9.24739	 68.392680	
9.28066	 68.414540	
9.31392	 68.491710	
9.34718	 68.598301	
9.38045	 68.596661	
9.41371	 68.622443	
9.44698	 68.630093	
9.48024	 68.683750	
9.5135	 68.687176	
9.54677	 68.765314	
9.58003	 68.818369	
9.6133	 68.900452	
9.64656	 68.908651	
9.67982	 68.951704	
9.71309	 68.990437	
9.74635	 68.994420	
9.77962	 69.000324	
9.81288	 68.921018	
9.84614	 68.887529	
9.87941	 68.935128	
9.91267	 68.983569	
9.94594	 69.001810	
9.9792	 68.953153	
10.0125	 68.981439	
10.0457	 68.969049	
10.079	 68.971844	
10.1123	 68.986665	
10.1455	 68.990602	
10.1788	 69.007974	
10.212	 69.004376	
10.2453	 68.986746	
10.2786	 68.995679	
10.3118	 69.004495	
10.3451	 69.032290	
10.3784	 69.040529	
10.4116	 69.049242	
10.4449	 69.008139	
10.4782	 69.047396	
10.5114	 69.029141	
10.5447	 69.017462	
10.578	 69.033117	
10.6112	 69.043457	
10.6445	 69.131914	
10.6777	 69.140514	
10.711	 69.098114	
10.7443	 69.051139	
10.7775	 69.076990	
10.8108	 69.135796	
10.8441	 69.148697	
10.8773	 69.195761	
10.9106	 69.226726	
10.9439	 69.251634	
10.9771	 69.291426	
11.0104	 69.373208	
11.0436	 69.435100	
11.0769	 69.431734	
11.1102	 69.420010	
11.1434	 69.405468	
11.1767	 69.445851	
11.21	 69.482764	
11.2432	 69.464662	
11.2765	 69.432471	
11.3098	 69.426280	
11.343	 69.433819	
11.3763	 69.436033	
11.4096	 69.453050	
11.4428	 69.456065	
11.4761	 69.428827	
11.5093	 69.397102	
11.5426	 69.396779	
11.5759	 69.419142	
11.6091	 69.415621	
11.6424	 69.422780	
11.6757	 69.390058	
11.7089	 69.419635	
11.7422	 69.391519	
11.7755	 69.356699	
11.8087	 69.372003	
11.842	 69.317926	
11.8752	 69.315524	
11.9085	 69.328677	
11.9418	 69.346260	
